<?xml version="1.0" encoding="iso-8859-1"?>
<!-- Generator: Adobe Illustrator 19.0.0, SVG Export Plug-In . SVG Version: 6.00 Build 0)  -->
<svg version="1.1" id="Capa_1" xmlns="http://www.w3.org/2000/svg" xmlns:xlink="http://www.w3.org/1999/xlink" x="0px" y="0px"
	 viewBox="0 0 507.976 507.976" style="enable-background:new 0 0 507.976 507.976;" xml:space="preserve">
<path style="fill:#40596B;" d="M340.97,58.689c-77.4-77.9-203.7-78.3-281.5-0.9c-77.9,77.4-78.2,203.7-0.9,281.5
	c77.4,77.9,203.7,78.2,281.5,0.9S418.37,136.489,340.97,58.689z"/>
<path style="fill:#FFFFFF;" d="M199.77,355.789c-42.2,0-81.7-16.4-111.3-46.2c-61-61.3-60.7-160.9,0.7-221.9
	c29.5-29.3,68.8-45.5,110.6-45.5c42.2,0,81.7,16.4,111.3,46.2c61,61.4,60.7,160.9-0.7,221.9
	C280.77,339.589,241.57,355.789,199.77,355.789L199.77,355.789z"/>
<path style="fill:#334A5E;" d="M355.97,356.189c6-6,13.2-9.9,20.7-12.3l-21.1-21.3c-4.8,6.1-9.9,12-15.5,17.6s-11.6,10.7-17.7,15.4
	l21.1,21.3C345.97,369.289,349.97,362.189,355.97,356.189z"/>
<path style="fill:#F8B64C;" d="M273.97,142.089c13.8,18,20.2,39.8,19.2,61.4h42.2c1.1-32.4-9.3-65.1-31.3-91.4L273.97,142.089z"/>
<path style="fill:#FF7058;" d="M291.97,213.989c-3,18.8-11.7,36.9-26.3,51.3c-0.3,0.3-0.7,0.6-1,0.9l29.8,29.9
	c0.3-0.3,0.6-0.5,0.9-0.8c22.8-22.7,35.8-51.5,39.1-81.3L291.97,213.989L291.97,213.989z"/>
<path style="fill:#F2F2F2;" d="M133.47,264.889c-13.9-14-22.8-31.7-25.8-50.9h-42.7c3.3,30.5,16.6,58.7,38.5,80.7
	c0.5,0.5,1,0.9,1.5,1.4l29.8-29.8C134.37,265.789,133.87,265.389,133.47,264.889z"/>
<path style="fill:#CDD6E0;" d="M106.57,203.389c-0.1-1.6-0.2-3.2-0.2-4.8c0.1-20.8,6.9-40.5,19.4-56.7l-30.2-29.9
	c-20.3,24.2-31.4,54.5-31.5,86.6c0,1.6,0.2,3.3,0.2,4.9h42.3V203.389z"/>
<path style="fill:#ACB3BA;" d="M132.57,133.989c0.4-0.5,0.8-0.9,1.3-1.4c16.3-16.2,37.7-25.6,60.7-26.8v-42.2
	c-34.2,1.3-66.1,15-90.4,39.1c-0.5,0.5-0.9,1-1.4,1.5L132.57,133.989z"/>
<path style="fill:#FFD15C;" d="M205.07,105.789c23.1,1.3,44.7,10.8,61.1,27.3c0.3,0.3,0.6,0.7,0.9,1l29.8-29.9
	c-0.3-0.3-0.5-0.6-0.8-0.9c-24.4-24.5-56.5-38.4-91-39.7V105.789z"/>
<path style="fill:#40596B;" d="M244.87,181.989c0,0-31.6,48.1-41.8,54.9c-10.1,6.8-23.9,4.2-30.7-5.9c-6.8-10.1-4.2-23.9,5.9-30.7
	C188.47,193.389,244.87,181.989,244.87,181.989z"/>
<circle style="fill:#FFFFFF;" cx="190.67" cy="218.589" r="11.3"/>
<path style="fill:#CDD6E0;" d="M491.27,492.289L491.27,492.289c-21.2,21-55.3,20.9-76.4-0.2l-65.6-66c-21-21.2-20.9-55.3,0.2-76.4
	l0,0c21.2-21,55.3-20.9,76.4,0.2l65.6,66C512.47,437.089,512.37,471.289,491.27,492.289z"/>
<path style="fill:#ACB3BA;" d="M491.27,492.289L491.27,492.289c-21.2,21-55.3,20.9-76.4-0.2l76.6-76.1
	C512.47,437.089,512.37,471.289,491.27,492.289z"/>
<g>
</g>
<g>
</g>
<g>
</g>
<g>
</g>
<g>
</g>
<g>
</g>
<g>
</g>
<g>
</g>
<g>
</g>
<g>
</g>
<g>
</g>
<g>
</g>
<g>
</g>
<g>
</g>
<g>
</g>
</svg>
