<svg xmlns="http://www.w3.org/2000/svg" width="32" height="32" viewBox="0 0 32 32">
  <g id="Group_872" data-name="Group 872" transform="translate(-337 -2181)">
    <rect id="Rectangle_303" data-name="Rectangle 303" width="32" height="32" transform="translate(337 2181)" fill="none"/>
    <g id="pdf" transform="translate(328.775 2187.516)">
      <g id="Group_865" data-name="Group 865" transform="translate(14.769)">
        <g id="Group_864" data-name="Group 864" transform="translate(0)">
          <path id="Path_1406" data-name="Path 1406" d="M33.284,5.348,28.249.116A.38.38,0,0,0,27.976,0h-7.5a1.524,1.524,0,0,0-1.523,1.522V6.84H15.908a1.141,1.141,0,0,0-1.139,1.139v5.7a1.141,1.141,0,0,0,1.139,1.139h3.041v3.421a1.523,1.523,0,0,0,1.523,1.52H31.867a1.523,1.523,0,0,0,1.523-1.519V5.611A.38.38,0,0,0,33.284,5.348ZM28.07,1.026,32.2,5.32H28.07ZM15.908,14.061a.38.38,0,0,1-.379-.379v-5.7a.38.38,0,0,1,.379-.379H26.17a.38.38,0,0,1,.379.379v5.7a.38.38,0,0,1-.379.379ZM32.63,18.242a.762.762,0,0,1-.763.759H20.472a.762.762,0,0,1-.763-.76V14.821H26.17a1.14,1.14,0,0,0,1.139-1.139v-5.7A1.141,1.141,0,0,0,26.17,6.84H19.709V1.522A.763.763,0,0,1,20.472.76H27.31V5.7a.38.38,0,0,0,.38.38h4.94V18.242Z" transform="translate(-14.769)" fill="#fff"/>
        </g>
      </g>
      <g id="Group_867" data-name="Group 867" transform="translate(17.001 9.276)">
        <g id="Group_866" data-name="Group 866">
          <path id="Path_1407" data-name="Path 1407" d="M74.907,240.715a.856.856,0,0,0-.47-.32,3.836,3.836,0,0,0-.784-.049H72.6v3.264h.659v-1.231h.43a3.761,3.761,0,0,0,.684-.047.955.955,0,0,0,.342-.155.9.9,0,0,0,.277-.322,1.065,1.065,0,0,0,.109-.505A1.014,1.014,0,0,0,74.907,240.715Zm-.564.9a.432.432,0,0,1-.206.16,1.7,1.7,0,0,1-.521.051h-.361V240.9h.318a3.162,3.162,0,0,1,.474.022.456.456,0,0,1,.265.145.422.422,0,0,1,.1.294A.439.439,0,0,1,74.343,241.613Z" transform="translate(-72.596 -240.346)" fill="#fff"/>
        </g>
      </g>
      <g id="Group_869" data-name="Group 869" transform="translate(20.04 9.276)">
        <g id="Group_868" data-name="Group 868">
          <path id="Path_1408" data-name="Path 1408" d="M153.976,241.238a1.427,1.427,0,0,0-.312-.529,1.092,1.092,0,0,0-.492-.3,2.352,2.352,0,0,0-.621-.062h-1.2v3.264h1.24a1.992,1.992,0,0,0,.583-.069,1.158,1.158,0,0,0,.463-.261,1.439,1.439,0,0,0,.35-.577,2.145,2.145,0,0,0,.1-.695A2.409,2.409,0,0,0,153.976,241.238Zm-.641,1.34a.691.691,0,0,1-.173.315.608.608,0,0,1-.266.136,1.794,1.794,0,0,1-.4.031h-.492V240.9h.3a2.987,2.987,0,0,1,.541.031.627.627,0,0,1,.305.154.747.747,0,0,1,.187.316,1.95,1.95,0,0,1,.067.581A2.13,2.13,0,0,1,153.334,242.578Z" transform="translate(-151.346 -240.346)" fill="#fff"/>
        </g>
      </g>
      <g id="Group_871" data-name="Group 871" transform="translate(23.34 9.276)">
        <g id="Group_870" data-name="Group 870">
          <path id="Path_1409" data-name="Path 1409" d="M239.084,240.9v-.552h-2.238v3.264h.659v-1.387h1.363v-.552h-1.363V240.9Z" transform="translate(-236.846 -240.346)" fill="#fff"/>
        </g>
      </g>
    </g>
  </g>
</svg>
