<svg xmlns="http://www.w3.org/2000/svg" width="32" height="32" viewBox="0 0 32 32">
  <g id="Group_895" data-name="Group 895" transform="translate(-0.412)">
    <rect id="Rectangle_287" data-name="Rectangle 287" width="32" height="32" transform="translate(0.412)" fill="none"/>
    <g id="Polygon_4" data-name="Polygon 4" transform="translate(5.412 5)" fill="none">
      <path d="M10.531,1.279a.5.5,0,0,1,.939,0L13.8,7.634a.5.5,0,0,0,.441.327l6.515.371a.5.5,0,0,1,.3.879l-5.1,4.359a.5.5,0,0,0-.16.5l1.683,6.649a.5.5,0,0,1-.766.536l-5.428-3.692a.5.5,0,0,0-.562,0L5.291,21.259a.5.5,0,0,1-.766-.536l1.683-6.649a.5.5,0,0,0-.16-.5L.946,9.212a.5.5,0,0,1,.3-.879l6.515-.371A.5.5,0,0,0,8.2,7.634Z" stroke="none"/>
      <path d="M 10.99999809265137 2.902454376220703 L 9.136899948120117 7.978974342346191 C 8.930729866027832 8.54072380065918 8.411490440368652 8.925694465637207 7.81404972076416 8.959733963012695 L 2.541965484619141 9.260068893432617 L 6.697010040283203 12.81070423126221 C 7.13385009765625 13.18400382995605 7.317660331726074 13.76196384429932 7.17671012878418 14.31901454925537 L 5.817234039306641 19.69167518615723 L 10.15633010864258 16.74025344848633 C 10.40612983703613 16.57033348083496 10.69785976409912 16.48051452636719 11 16.48051452636719 C 11.30210971832275 16.48051452636719 11.59383010864258 16.5703239440918 11.84362983703613 16.740234375 L 16.18276023864746 19.69166946411133 L 14.82328987121582 14.31902408599854 C 14.68234062194824 13.76196384429932 14.86614990234375 13.18400382995605 15.3029899597168 12.81071376800537 L 19.45804214477539 9.260062217712402 L 14.1859302520752 8.959733963012695 C 13.58850955963135 8.925694465637207 13.06927013397217 8.54072380065918 12.86310005187988 7.978954315185547 L 10.99999809265137 2.902454376220703 M 10.99999618530273 0.9512367248535156 C 11.1945972442627 0.9512367248535156 11.38920021057129 1.060478210449219 11.46938991546631 1.278964996337891 L 13.80187034606934 7.634424209594727 C 13.87055015563965 7.821554183959961 14.04380989074707 7.950014114379883 14.24281978607178 7.96135425567627 L 20.75745964050293 8.332464218139648 C 21.20734977722168 8.358094215393066 21.39641952514648 8.919034004211426 21.05384063720703 9.211773872375488 L 15.95264053344727 13.57094383239746 C 15.80807018280029 13.69448375701904 15.74608993530273 13.88935375213623 15.79273986816406 14.07371425628662 L 17.47529029846191 20.72318458557129 C 17.56145477294922 21.06371688842773 17.29119682312012 21.34762573242188 16.98925018310547 21.34762573242188 C 16.89577865600586 21.34762573242188 16.79927253723145 21.32042121887207 16.70936012268066 21.25926399230957 L 11.28120994567871 17.56708526611328 C 11.19635486602783 17.50936889648438 11.09817790985107 17.48051071166992 11 17.48051071166992 C 10.90182209014893 17.48051071166992 10.80364513397217 17.50936889648438 10.71879005432129 17.56708526611328 L 5.290639877319336 21.25926399230957 C 5.200750350952148 21.32040405273438 5.104198455810547 21.34762573242188 5.010747909545898 21.34762573242188 C 4.708770751953125 21.34762573242188 4.438529968261719 21.06374359130859 4.524709701538086 20.72318458557129 L 6.207260131835938 14.07371425628662 C 6.253910064697266 13.88935375213623 6.191929817199707 13.69448375701904 6.047360420227051 13.57094383239746 L 0.9461593627929688 9.211773872375488 C 0.6035804748535156 8.919034004211426 0.7926502227783203 8.358094215393066 1.24254035949707 8.332473754882813 L 7.757180213928223 7.96135425567627 C 7.95619010925293 7.950014114379883 8.129449844360352 7.821554183959961 8.198129653930664 7.634424209594727 L 10.53061008453369 1.278964996337891 C 10.61079502105713 1.060478210449219 10.80539512634277 0.9512367248535156 10.99999618530273 0.9512367248535156 Z" stroke="none" fill="#707070"/>
    </g>
  </g>
</svg>
