<svg xmlns="http://www.w3.org/2000/svg" width="32" height="32" viewBox="0 0 32 32">
  <g id="Group_1076" data-name="Group 1076" transform="translate(-284 -315)">
    <g id="_015-linkedin" data-name="015-linkedin" transform="translate(291.48 321.432)">
      <path id="Path_1401" data-name="Path 1401" d="M4.38,151.625H1.155a.656.656,0,0,0-.656.656v12.153a.656.656,0,0,0,.656.655H4.38a.656.656,0,0,0,.655-.655V152.281A.656.656,0,0,0,4.38,151.625Zm-.467,12.341H1.622V152.747H3.913Zm0,0" transform="translate(-0.481 -145.96)" fill="#fff"/>
      <path id="Path_1402" data-name="Path 1402" d="M2.287,0A2.286,2.286,0,1,0,4.573,2.286,2.289,2.289,0,0,0,2.287,0Zm0,3.451A1.164,1.164,0,1,1,3.451,2.286,1.165,1.165,0,0,1,2.287,3.451Zm0,0" transform="translate(0)" fill="#fff"/>
      <path id="Path_1403" data-name="Path 1403" d="M166.953,153.054a4.184,4.184,0,0,0-2.758-.969,4.229,4.229,0,0,0-1.791.436v-.265a.626.626,0,0,0-.626-.626h-3.283a.626.626,0,0,0-.626.626v12.211a.626.626,0,0,0,.626.626h3.348a.561.561,0,0,0,.561-.561v-7.281a1.161,1.161,0,0,1,1.111-1.169,1.147,1.147,0,0,1,1.18,1.145v7.317a.55.55,0,0,0,.549.549h3.218a.55.55,0,0,0,.549-.549v-7.094a5.711,5.711,0,0,0-2.058-4.4Zm.935,10.916h-2.072v-6.744a2.268,2.268,0,0,0-4.536,0v6.744H158.99V152.751h2.291v.816h0a.56.56,0,0,0,.933.42,3.109,3.109,0,0,1,2-.78,3.058,3.058,0,0,1,2.018.708,4.591,4.591,0,0,1,1.654,3.534Zm0,0" transform="translate(-151.97 -145.964)" fill="#fff"/>
    </g>
    <g id="Rectangle_354" data-name="Rectangle 354" transform="translate(284 315)" fill="none" stroke="#fff" stroke-width="1">
      <rect width="32" height="32" rx="3" stroke="none"/>
      <rect x="0.5" y="0.5" width="31" height="31" rx="2.5" fill="none"/>
    </g>
  </g>
</svg>
