<svg xmlns="http://www.w3.org/2000/svg" width="19.184" height="20.056" viewBox="0 0 19.184 20.056">
  <g id="Group_853" data-name="Group 853" transform="translate(-620.288 -367.514)">
    <rect id="Rectangle_197" data-name="Rectangle 197" width="18.469" height="18.388" transform="translate(620.645 368.792)" fill="none"/>
    <g id="Group_460" data-name="Group 460" transform="translate(620.287 367.514)">
      <g id="Group_459" data-name="Group 459" transform="translate(0 0)">
        <g id="Ellipse_19" data-name="Ellipse 19" transform="translate(4.87 0)" fill="none" stroke="#216efc" stroke-miterlimit="10" stroke-width="2">
          <circle cx="4.722" cy="4.722" r="4.722" stroke="none"/>
          <circle cx="4.722" cy="4.722" r="3.722" fill="none"/>
        </g>
        <g id="Rectangle_198" data-name="Rectangle 198" transform="translate(0 10.107)" fill="none" stroke="#216efc" stroke-miterlimit="10" stroke-width="2">
          <path d="M9.592,0h0a9.592,9.592,0,0,1,9.592,9.592v.357a0,0,0,0,1,0,0H0a0,0,0,0,1,0,0V9.592A9.592,9.592,0,0,1,9.592,0Z" stroke="none"/>
          <path d="M8.154,1H11.03a7.154,7.154,0,0,1,7.154,7.154v0a.795.795,0,0,1-.795.795H1.795A.795.795,0,0,1,1,8.154v0A7.154,7.154,0,0,1,8.154,1Z" fill="none"/>
        </g>
      </g>
    </g>
  </g>
</svg>
