<?xml version="1.0" encoding="iso-8859-1"?>
<!-- Generator: Adobe Illustrator 19.0.0, SVG Export Plug-In . SVG Version: 6.00 Build 0)  -->
<svg version="1.1" id="Capa_1" xmlns="http://www.w3.org/2000/svg" xmlns:xlink="http://www.w3.org/1999/xlink" x="0px" y="0px"
	 viewBox="0 0 508 508" style="enable-background:new 0 0 508 508;" xml:space="preserve">
<path style="fill:#40596B;" d="M452.8,33.25H21.2C9.5,33.25,0,42.75,0,54.45v280h474v-280C474,42.75,464.5,33.25,452.8,33.25z"/>
<path style="fill:#F2F2F2;" d="M0,334.45v36.2c0,11.7,9.5,21.2,21.2,21.2h437c8.7,0,15.8-7.1,15.8-15.8v-41.6L0,334.45L0,334.45z"/>
<g>
	<circle style="fill:#CDD6E0;" cx="237" cy="363.15" r="11.3"/>
	<polygon style="fill:#CDD6E0;" points="339.1,444.75 134.8,444.75 154.5,406.55 162.1,391.85 311.9,391.85 319.5,406.55 	"/>
</g>
<path style="fill:#F2F2F2;" d="M363.3,444.65H110.7c-16.6,0-30,13.4-30,30h312.6C393.3,458.15,379.9,444.65,363.3,444.65z"/>
<rect x="31.5" y="62.95" style="fill:#84DBFF;" width="411" height="248.7"/>
<polygon style="fill:#ACB3BA;" points="319.5,406.55 154.5,406.55 162.1,391.85 311.9,391.85 "/>
<path style="fill:#334A5E;" d="M486.8,207.65H368.3c-11.7,0-21.2,9.5-21.2,21.2v224.7c0,11.7,9.5,21.2,21.2,21.2h118.5
	c11.7,0,21.2-9.5,21.2-21.2v-224.8C508,217.05,498.5,207.65,486.8,207.65z"/>
<rect x="360.8" y="240.35" style="fill:#84DBFF;" width="133.5" height="188.7"/>
<g>
	<circle style="fill:#4CDBC4;" cx="427.6" cy="451.85" r="10.8"/>
	<path style="fill:#4CDBC4;" d="M445.9,227.25h-36.6c-0.2,0-0.3-0.1-0.3-0.3v-5.9c0-0.2,0.1-0.3,0.3-0.3h36.6c0.2,0,0.3,0.1,0.3,0.3
		v5.9C446.2,227.15,446,227.25,445.9,227.25z"/>
</g>
<g>
</g>
<g>
</g>
<g>
</g>
<g>
</g>
<g>
</g>
<g>
</g>
<g>
</g>
<g>
</g>
<g>
</g>
<g>
</g>
<g>
</g>
<g>
</g>
<g>
</g>
<g>
</g>
<g>
</g>
</svg>
