<svg xmlns="http://www.w3.org/2000/svg" width="16" height="16" viewBox="0 0 16 16">
  <g id="Polygon_3" data-name="Polygon 3" fill="none">
    <path d="M8,0l2.4,5.371,5.6.74-4.117,4.06L12.944,16,8,13.138,3.056,16l1.061-5.829L0,6.111l5.6-.74Z" stroke="none"/>
    <path d="M 8 2.451271057128906 L 6.512999534606934 5.779219627380371 L 6.285039901733398 6.289420127868652 L 5.731040000915527 6.362649917602539 L 2.157793045043945 6.83495044708252 L 4.818889617919922 9.459259986877441 L 5.195199966430664 9.83036994934082 L 5.100549697875977 10.35034942626953 L 4.42697811126709 14.05073165893555 L 7.49899959564209 12.27237987518311 L 8 11.98235988616943 L 8.500999450683594 12.27237987518311 L 11.57302188873291 14.05073165893555 L 10.89945030212402 10.35034942626953 L 10.80480003356934 9.83036994934082 L 11.18111038208008 9.459259986877441 L 13.84220695495605 6.83495044708252 L 10.26895999908447 6.362649917602539 L 9.714960098266602 6.289420127868652 L 9.48699951171875 5.779219627380371 L 8 2.451271057128906 M 8 0 L 10.39999961853027 5.371270179748535 L 16 6.111459732055664 L 11.88327980041504 10.1712703704834 L 12.94427013397217 16 L 8 13.13782978057861 L 3.055729866027832 16 L 4.116720199584961 10.1712703704834 L 0 6.111459732055664 L 5.600000381469727 5.371270179748535 L 8 0 Z" stroke="none" fill="#3a3a3a"/>
  </g>
</svg>
