<svg xmlns="http://www.w3.org/2000/svg" width="32" height="32" viewBox="0 0 32 32">
  <g id="Group_816" data-name="Group 816" transform="translate(-156 -221)">
    <rect id="Rectangle_191" data-name="Rectangle 191" width="32" height="32" transform="translate(156 221)" fill="none"/>
    <path id="Union_1" data-name="Union 1" d="M14.113,15.665,9.892,11.282a6.143,6.143,0,0,1-8.079-.594,6.31,6.31,0,0,1,0-8.854,6.143,6.143,0,0,1,8.756,0,6.319,6.319,0,0,1,.79,7.878l4.347,4.514a1.032,1.032,0,0,1-.054,1.491,1.116,1.116,0,0,1-1.54-.052ZM2.064,6.261A4.128,4.128,0,1,0,6.192,2.087,4.156,4.156,0,0,0,2.064,6.261Z" transform="translate(164 229)" fill="#707070" opacity="0.5"/>
  </g>
</svg>
