<svg xmlns="http://www.w3.org/2000/svg" width="32" height="32" viewBox="0 0 32 32">
  <g id="Group_1074" data-name="Group 1074" transform="translate(-188 -315)">
    <g id="Rectangle_352" data-name="Rectangle 352" transform="translate(188 315)" fill="none" stroke="#fff" stroke-width="1">
      <rect width="32" height="32" rx="3" stroke="none"/>
      <rect x="0.5" y="0.5" width="31" height="31" rx="2.5" fill="none"/>
    </g>
    <path id="_004-twitter" data-name="004-twitter" d="M7.8,16.932c-3.423,0-6.128-.6-7.423-1.64l-.025-.02-.023-.023a1.053,1.053,0,0,1-.276-1.107l.012-.033a1.072,1.072,0,0,1,.978-.673,8.838,8.838,0,0,0,2.337-.322,4.436,4.436,0,0,1-2.338-2.7A.958.958,0,0,1,1.38,9.3a.977.977,0,0,1,.292-.149A6.468,6.468,0,0,1,.345,6.77L.337,6.743.332,6.716a1,1,0,0,1,.462-1.07.993.993,0,0,1,.473-.133A5,5,0,0,1,.889,4.36,4.822,4.822,0,0,1,1.4,1.147L1.529.893A.709.709,0,0,1,2.665.708L2.9.94A10.936,10.936,0,0,0,9.2,4.393a5.023,5.023,0,0,1,1.356-2.9,4.758,4.758,0,0,1,3.4-1.5h.008a6.8,6.8,0,0,1,2.808.914c.6-.2,1.332-.5,2.088-.828a.954.954,0,0,1,1.067.188.937.937,0,0,1,.2,1.03q-.082.229-.187.45a.955.955,0,0,1,.278.192,1.032,1.032,0,0,1,.257.964l-.009.033a3.934,3.934,0,0,1-1.581,2.17c-.123,6.541-5.048,11.82-11.085,11.82Zm-6.269-2.31A14.167,14.167,0,0,0,7.8,15.729a9.391,9.391,0,0,0,6.962-3.168,11.348,11.348,0,0,0,2.923-7.7V4.829a.709.709,0,0,1,.378-.627,2.554,2.554,0,0,0,1.105-1.223.709.709,0,0,1-.683-1.117,3.9,3.9,0,0,0,.268-.424c-.652.274-1.272.52-1.81.683a.769.769,0,0,1-.592-.064A5.86,5.86,0,0,0,13.968,1.2a3.74,3.74,0,0,0-3.6,3.79.71.71,0,0,1-.847.7A12.434,12.434,0,0,1,2.3,2.055a3.551,3.551,0,0,0-.234,2.077A4.389,4.389,0,0,0,3.111,6.151.709.709,0,0,1,2.395,7.3a3.248,3.248,0,0,1-.661-.254A5.992,5.992,0,0,0,3.788,9.432a.709.709,0,0,1-.454,1.292,3.189,3.189,0,0,1-.941-.2A3.234,3.234,0,0,0,4.974,12.35a.709.709,0,0,1,.211,1.326,8.522,8.522,0,0,1-3.651.947Zm0,0" transform="translate(193.746 322.534)" fill="#fff"/>
  </g>
</svg>
