<svg xmlns="http://www.w3.org/2000/svg" width="33" height="33" viewBox="0 0 33 33">
  <path id="_001-facebook" data-name="001-facebook" d="M30.234,0H1.765A1.766,1.766,0,0,0,0,1.766V30.235A1.766,1.766,0,0,0,1.766,32H17.094V19.625H12.938V14.781h4.156V11.216c0-4.134,2.524-6.384,6.211-6.384a34.194,34.194,0,0,1,3.726.19V9.343H24.489c-2.006,0-2.395.953-2.395,2.353v3.085h4.8l-.625,4.844H22.094V32h8.14A1.766,1.766,0,0,0,32,30.234h0V1.765A1.766,1.766,0,0,0,30.234,0Zm0,0" transform="translate(0.5 0.5)" fill="none" stroke="#fff" stroke-width="1"/>
</svg>
