<svg xmlns="http://www.w3.org/2000/svg" width="25.186" height="20.371" viewBox="0 0 25.186 20.371">
  <path id="Path_1498" data-name="Path 1498" d="M21.75-20.561a2.35,2.35,0,0,1,1.728.708,2.35,2.35,0,0,1,.708,1.728v14.5A2.35,2.35,0,0,1,23.478-1.9a2.35,2.35,0,0,1-1.728.708H2.436A2.35,2.35,0,0,1,.708-1.9,2.35,2.35,0,0,1,0-3.625v-14.5a2.35,2.35,0,0,1,.708-1.728,2.35,2.35,0,0,1,1.728-.708Zm0,4.871-9.686,5.4-9.629-5.4,9.629,5.4Z" transform="translate(0.5 21.061)" fill="none" stroke="#fff" stroke-linecap="round" stroke-linejoin="round" stroke-width="1"/>
</svg>
