<svg xmlns="http://www.w3.org/2000/svg" width="32" height="32" viewBox="0 0 32 32">
  <g id="Group_929" data-name="Group 929" transform="translate(-0.304)">
    <rect id="Rectangle_310" data-name="Rectangle 310" width="32" height="32" transform="translate(0.304)" fill="none"/>
    <path id="Path_1415" data-name="Path 1415" d="M11.376-12.912v.336H14.16v1.968H11.232a5.617,5.617,0,0,1-1,2.556A4.064,4.064,0,0,1,8.16-6.684a11.935,11.935,0,0,1-3.48.42v1.512a3.458,3.458,0,0,0,.564,2.088A2.212,2.212,0,0,0,7.152-1.9Q9.6-1.9,9.6-4.656h2.52A4.925,4.925,0,0,1,10.812-1,5.138,5.138,0,0,1,7.1.24,4.888,4.888,0,0,1,3.4-1.1,5.235,5.235,0,0,1,2.112-4.872V-8.16a34.96,34.96,0,0,0,3.912-.156,3.618,3.618,0,0,0,1.86-.66,2.593,2.593,0,0,0,.8-1.632H1.1v-1.968h7.7v-2.136H1.1V-16.7H14.16v1.992H11.376Z" transform="translate(8.368 24.232)" fill="#707070"/>
  </g>
</svg>
