<svg xmlns="http://www.w3.org/2000/svg" width="32" height="32" viewBox="0 0 32 32">
  <g id="Group_1075" data-name="Group 1075" transform="translate(-241 -371)">
    <g id="Rectangle_353" data-name="Rectangle 353" transform="translate(241 371)" fill="none" stroke="#fff" stroke-width="1">
      <rect width="32" height="32" rx="3" stroke="none"/>
      <rect x="0.5" y="0.5" width="31" height="31" rx="2.5" fill="none"/>
    </g>
    <g id="_011-instagram" data-name="011-instagram" transform="translate(246.557 377)">
      <path id="Path_1489" data-name="Path 1489" d="M20.387,5.878a7.306,7.306,0,0,0-.465-2.426A5.122,5.122,0,0,0,17,.527,7.324,7.324,0,0,0,14.572.063C13.5.012,13.162,0,10.447,0S7.393.012,6.327.059A7.308,7.308,0,0,0,3.9.523,4.878,4.878,0,0,0,2.128,1.68,4.922,4.922,0,0,0,.976,3.449,7.325,7.325,0,0,0,.511,5.874C.46,6.944.449,7.284.449,10s.012,3.054.059,4.121a7.305,7.305,0,0,0,.465,2.426A5.121,5.121,0,0,0,3.9,19.47a7.325,7.325,0,0,0,2.426.465c1.066.047,1.406.059,4.121.059s3.054-.012,4.121-.059a7.3,7.3,0,0,0,2.425-.465,5.114,5.114,0,0,0,2.925-2.925,7.33,7.33,0,0,0,.465-2.426c.047-1.066.059-1.406.059-4.121s0-3.054-.051-4.121Zm-1.8,8.163a5.48,5.48,0,0,1-.344,1.855,3.317,3.317,0,0,1-1.9,1.9,5.5,5.5,0,0,1-1.855.344c-1.055.047-1.371.059-4.038.059s-2.988-.012-4.039-.059a5.477,5.477,0,0,1-1.855-.344,3.076,3.076,0,0,1-1.148-.746A3.108,3.108,0,0,1,2.663,15.9a5.5,5.5,0,0,1-.344-1.855c-.047-1.055-.059-1.371-.059-4.039s.012-2.988.059-4.038a5.477,5.477,0,0,1,.344-1.855,3.039,3.039,0,0,1,.75-1.148,3.1,3.1,0,0,1,1.148-.746,5.5,5.5,0,0,1,1.855-.344c1.055-.047,1.371-.059,4.038-.059s2.988.012,4.039.059a5.48,5.48,0,0,1,1.855.344,3.074,3.074,0,0,1,1.148.746,3.108,3.108,0,0,1,.746,1.148,5.5,5.5,0,0,1,.344,1.855c.047,1.055.059,1.371.059,4.038s-.012,2.98-.059,4.035Zm0,0" transform="translate(0 0)" fill="#fff"/>
      <path id="Path_1490" data-name="Path 1490" d="M130.085,124.5a5.136,5.136,0,1,0,5.136,5.136A5.137,5.137,0,0,0,130.085,124.5Zm0,8.468a3.332,3.332,0,1,1,3.332-3.332A3.332,3.332,0,0,1,130.085,132.968Zm0,0" transform="translate(-119.638 -119.637)" fill="#fff"/>
      <path id="Path_1491" data-name="Path 1491" d="M364.848,89.8a1.2,1.2,0,1,1-1.2-1.2A1.2,1.2,0,0,1,364.848,89.8Zm0,0" transform="translate(-347.862 -85.141)" fill="#fff"/>
    </g>
  </g>
</svg>
