<svg xmlns="http://www.w3.org/2000/svg" width="22.75" height="22.75" viewBox="0 0 22.75 22.75">
  <path id="Path_1499" data-name="Path 1499" d="M4.361-12.348a17.77,17.77,0,0,0,7.986,7.986L15.01-7.023a1.039,1.039,0,0,1,1.246-.283,13.523,13.523,0,0,0,4.3.68,1.182,1.182,0,0,1,.821.34,1.108,1.108,0,0,1,.368.85v4.248a1.137,1.137,0,0,1-.368.821A1.137,1.137,0,0,1,20.561,0,20.217,20.217,0,0,1,10.224-2.747a20.289,20.289,0,0,1-7.477-7.477A20.217,20.217,0,0,1,0-20.561a1.137,1.137,0,0,1,.368-.821,1.137,1.137,0,0,1,.821-.368H5.438a1.108,1.108,0,0,1,.85.368,1.182,1.182,0,0,1,.34.821,13.523,13.523,0,0,0,.68,4.3,1.158,1.158,0,0,1-.283,1.246Z" transform="translate(0.5 22.25)" fill="none" stroke="#fff" stroke-width="1"/>
</svg>
