<svg xmlns="http://www.w3.org/2000/svg" width="32" height="32" viewBox="0 0 32 32">
  <g id="Group_922" data-name="Group 922" transform="translate(-1418 -341)">
    <rect id="Rectangle_215" data-name="Rectangle 215" width="32" height="32" transform="translate(1418 341)" fill="none"/>
    <path id="Path_23" data-name="Path 23" d="M16.477-12.3a1.832,1.832,0,0,0-1.308-.545,1.832,1.832,0,0,0-1.308.545,1.727,1.727,0,0,0-.567,1.286A1.8,1.8,0,0,0,13.861-9.7a1.8,1.8,0,0,0,1.308.567A1.8,1.8,0,0,0,16.477-9.7a1.8,1.8,0,0,0,.567-1.308A1.727,1.727,0,0,0,16.477-12.3Zm1,3.6a3.15,3.15,0,0,1-2.311.959A3.15,3.15,0,0,1,12.859-8.7a3.15,3.15,0,0,1-.959-2.311,3.078,3.078,0,0,1,.959-2.289,3.187,3.187,0,0,1,2.311-.937,3.187,3.187,0,0,1,2.311.937,3.078,3.078,0,0,1,.959,2.289A3.15,3.15,0,0,1,17.48-8.7ZM8.106-12.3A1.832,1.832,0,0,0,6.8-12.843,1.832,1.832,0,0,0,5.49-12.3a1.727,1.727,0,0,0-.567,1.286A1.8,1.8,0,0,0,5.49-9.7,1.8,1.8,0,0,0,6.8-9.137,1.8,1.8,0,0,0,8.106-9.7a1.8,1.8,0,0,0,.567-1.308A1.727,1.727,0,0,0,8.106-12.3Zm1,3.6A3.15,3.15,0,0,1,6.8-7.742,3.15,3.15,0,0,1,4.488-8.7a3.15,3.15,0,0,1-.959-2.311A3.078,3.078,0,0,1,4.488-13.3,3.187,3.187,0,0,1,6.8-14.238a3.187,3.187,0,0,1,2.311.937,3.078,3.078,0,0,1,.959,2.289A3.15,3.15,0,0,1,9.109-8.7Zm10.725,6.06V-3.775q0-.436-1.548-1.046a8.437,8.437,0,0,0-3.117-.61,9.587,9.587,0,0,0-2.79.523,1.761,1.761,0,0,1,.48,1.134v1.134Zm-8.371,0V-3.775q0-.436-1.548-1.046a8.265,8.265,0,0,0-6.235,0q-1.548.61-1.548,1.046v1.134Zm3.706-4.185a10.552,10.552,0,0,1,3.967.85q2.093.85,2.093,2.2v2.529H.738V-3.775q0-1.352,2.093-2.2A10.552,10.552,0,0,1,6.8-6.827a10.173,10.173,0,0,1,4.185.959A10.173,10.173,0,0,1,15.169-6.827Z" transform="translate(1423.278 364.98)" fill="#fa5517"/>
  </g>
</svg>
