<svg xmlns="http://www.w3.org/2000/svg" width="32" height="32" viewBox="0 0 32 32">
  <g id="Group_818" data-name="Group 818" transform="translate(-1558 -448)">
    <rect id="Rectangle_187" data-name="Rectangle 187" width="32" height="32" transform="translate(1558 448)" fill="none"/>
    <path id="Path_4" data-name="Path 4" d="M15.044-13.115h0Zm0,2.54h0Zm0,2.54h0Zm3.373-6.786V.417L15.044-2.956H3.178a1.572,1.572,0,0,1-1.171-.516,1.667,1.667,0,0,1-.5-1.191V-14.822a1.6,1.6,0,0,1,.5-1.171,1.6,1.6,0,0,1,1.171-.5H16.75a1.6,1.6,0,0,1,1.171.5A1.6,1.6,0,0,1,18.417-14.822Z" transform="translate(1564.036 472.036)" fill="none" stroke="#707070" stroke-width="1"/>
  </g>
</svg>
