<svg xmlns="http://www.w3.org/2000/svg" width="32" height="32" viewBox="0 0 32 32">
  <g id="Group_831" data-name="Group 831" transform="translate(-676 -348)">
    <rect id="Rectangle_193" data-name="Rectangle 193" width="32" height="32" transform="translate(676 348)" fill="none"/>
    <path id="Path_7" data-name="Path 7" d="M15.414-4.147a2.429,2.429,0,0,1,1.81.761,2.483,2.483,0,0,1,.74,1.789A2.5,2.5,0,0,1,17.2.234,2.449,2.449,0,0,1,15.414,1,2.449,2.449,0,0,1,13.625.234,2.5,2.5,0,0,1,12.864-1.6a2.726,2.726,0,0,1,.041-.576L6.693-5.792a2.632,2.632,0,0,1-1.81.7,2.53,2.53,0,0,1-1.851-.782A2.53,2.53,0,0,1,2.25-7.726a2.53,2.53,0,0,1,.782-1.851,2.53,2.53,0,0,1,1.851-.782,2.632,2.632,0,0,1,1.81.7l6.171-3.579a3.465,3.465,0,0,1-.082-.617,2.53,2.53,0,0,1,.782-1.851,2.53,2.53,0,0,1,1.851-.782,2.53,2.53,0,0,1,1.851.782,2.53,2.53,0,0,1,.782,1.851A2.53,2.53,0,0,1,17.265-12a2.53,2.53,0,0,1-1.851.782,2.649,2.649,0,0,1-1.81-.74L7.433-8.343a3.465,3.465,0,0,1,.082.617,3.465,3.465,0,0,1-.082.617l6.253,3.62A2.519,2.519,0,0,1,15.414-4.147Z" transform="translate(681.852 371.747)" fill="#707070"/>
  </g>
</svg>
