<svg id="Group_806" data-name="Group 806" xmlns="http://www.w3.org/2000/svg" width="82.851" height="58.686" viewBox="0 0 82.851 58.686">
  <path id="Path_1384" data-name="Path 1384" d="M74.22,63.686H8.63A8.546,8.546,0,0,1,0,55.056V13.63A8.546,8.546,0,0,1,8.63,5H74.22a8.546,8.546,0,0,1,8.63,8.63V55.056A8.546,8.546,0,0,1,74.22,63.686ZM8.63,8.452A5.309,5.309,0,0,0,3.452,13.63V55.056A5.309,5.309,0,0,0,8.63,60.234H74.22A5.309,5.309,0,0,0,79.4,55.056V13.63A5.309,5.309,0,0,0,74.22,8.452Z" transform="translate(0 -5)" fill="#216efc"/>
</svg>
