<svg xmlns="http://www.w3.org/2000/svg" width="32" height="32" viewBox="0 0 32 32">
  <g id="Group_819" data-name="Group 819" transform="translate(-1558 -496)">
    <rect id="Rectangle_188" data-name="Rectangle 188" width="32" height="32" transform="translate(1558 496)" fill="none"/>
    <path id="Path_5" data-name="Path 5" d="M7.333-4.888a4.258,4.258,0,0,0,3.122,1.3,4.258,4.258,0,0,0,3.122-1.3,4.258,4.258,0,0,0,1.3-3.122,4.258,4.258,0,0,0-1.3-3.122,4.258,4.258,0,0,0-3.122-1.3,4.258,4.258,0,0,0-3.122,1.3,4.258,4.258,0,0,0-1.3,3.122A4.258,4.258,0,0,0,7.333-4.888ZM4.542-12.806a10.2,10.2,0,0,1,5.912-1.819,10.2,10.2,0,0,1,5.912,1.819,10.172,10.172,0,0,1,3.8,4.8,10.172,10.172,0,0,1-3.8,4.8,10.2,10.2,0,0,1-5.912,1.819A10.2,10.2,0,0,1,4.542-3.214a10.172,10.172,0,0,1-3.8-4.8A10.172,10.172,0,0,1,4.542-12.806Z" transform="translate(1563.546 520.01)" fill="none" stroke="#707070" stroke-width="1"/>
  </g>
</svg>
