<svg xmlns="http://www.w3.org/2000/svg" viewBox="0 0 1440 320"><path fill="#273036" fill-opacity="1" d="M0,160L34.3,181.3C68.6,203,137,245,206,256C274.3,267,343,245,411,224C480,203,549,181,617,154.7C685.7,128,754,96,823,117.3C891.4,139,960,213,1029,234.7C1097.1,256,1166,224,1234,197.3C1302.9,171,1371,149,1406,138.7L1440,128L1440,320L1405.7,320C1371.4,320,1303,320,1234,320C1165.7,320,1097,320,1029,320C960,320,891,320,823,320C754.3,320,686,320,617,320C548.6,320,480,320,411,320C342.9,320,274,320,206,320C137.1,320,69,320,34,320L0,320Z"></path></svg>