<svg xmlns="http://www.w3.org/2000/svg" width="24" height="24" viewBox="0 0 24 24">
  <g id="Group_1801" data-name="Group 1801" transform="translate(-1419 -758)">
    <rect id="Rectangle_564" data-name="Rectangle 564" width="24" height="24" transform="translate(1419 758)" fill="none"/>
    <path id="Icon_ionic-logo-facebook" data-name="Icon ionic-logo-facebook" d="M19.617,4.5H5.383a.884.884,0,0,0-.883.883V19.617a.884.884,0,0,0,.883.883H12.5V14.167H10.587V11.833H12.5V10.108a3.04,3.04,0,0,1,3.279-3.192c.883,0,1.833.067,2.054.1V9.171H16.362c-1,0-1.2.475-1.2,1.175v1.487h2.392l-.312,2.333H15.167V20.5h4.45a.884.884,0,0,0,.883-.883V5.383A.884.884,0,0,0,19.617,4.5Z" transform="translate(1418.5 757.5)" fill="#fff"/>
  </g>
</svg>
