<svg xmlns="http://www.w3.org/2000/svg" width="24" height="24" viewBox="0 0 24 24">
  <g id="Group_1043" data-name="Group 1043" transform="translate(0.412)">
    <rect id="Rectangle_402" data-name="Rectangle 402" width="24" height="24" transform="translate(-0.412)" fill="none"/>
    <path id="Icon_metro-attachment" data-name="Icon metro-attachment" d="M13.646,7.145,12.61,6.109,7.428,11.29A2.2,2.2,0,1,0,10.537,14.4l6.218-6.217A3.663,3.663,0,0,0,11.574,3L5.045,9.529l-.014.013a5.109,5.109,0,0,0,7.226,7.225l.013-.014h0L16.727,12.3,15.69,11.262l-4.456,4.455-.013.013a3.644,3.644,0,0,1-5.154-5.152l.014-.013h0L12.61,4.037a2.2,2.2,0,1,1,3.109,3.108L9.5,13.362a.733.733,0,0,1-1.036-1.036l5.181-5.181Z" transform="translate(1.053 1.905)" fill="#707070"/>
  </g>
</svg>
