<svg xmlns="http://www.w3.org/2000/svg" width="32" height="32" viewBox="0 0 32 32">
  <g id="Group_967" data-name="Group 967" transform="translate(-48 -113)">
    <rect id="Rectangle_340" data-name="Rectangle 340" width="32" height="32" transform="translate(48 113)" fill="none"/>
    <g id="Iconly_Light_Home" data-name="Iconly/Light/Home" transform="translate(50.5 115)">
      <g id="Home" transform="translate(0)">
        <path id="Home-2" data-name="Home" d="M9.46,26.28V21.987A2.012,2.012,0,0,1,11.484,20h4.1a2.012,2.012,0,0,1,2.037,1.987h0v4.307A1.727,1.727,0,0,0,19.331,28h2.734A4.875,4.875,0,0,0,27,23.187h0V10.973a3.4,3.4,0,0,0-1.367-2.667L16.282.959a4.573,4.573,0,0,0-5.605,0L1.367,8.32A3.372,3.372,0,0,0,0,10.986v12.2A4.875,4.875,0,0,0,4.935,28H7.669a1.742,1.742,0,0,0,1.764-1.72h0" fill="none" stroke="#fff" stroke-linecap="round" stroke-linejoin="round" stroke-miterlimit="10" stroke-width="1.5"/>
      </g>
    </g>
  </g>
</svg>
