<svg xmlns="http://www.w3.org/2000/svg" width="32" height="32" viewBox="0 0 32 32">
  <g id="Group_980" data-name="Group 980" transform="translate(-44 -500)">
    <rect id="Rectangle_356" data-name="Rectangle 356" width="32" height="32" transform="translate(44 500)" fill="none"/>
    <g id="Iconly_Light_Setting" data-name="Iconly/Light/Setting" transform="translate(46.999 502)">
      <g id="Setting" transform="translate(0 0)">
        <path id="Path_33946" d="M25.412,7.57l-.9-1.53a2.81,2.81,0,0,0-3.782-1h0a2.817,2.817,0,0,1-2.095.287,2.754,2.754,0,0,1-1.687-1.246,2.548,2.548,0,0,1-.372-1.3h0A2.675,2.675,0,0,0,15.79.821,2.806,2.806,0,0,0,13.8,0H11.982a2.794,2.794,0,0,0-1.956.794,2.665,2.665,0,0,0-.8,1.915h0A2.743,2.743,0,0,1,6.449,5.38a2.7,2.7,0,0,1-1.327-.363h0a2.81,2.81,0,0,0-3.782,1L.371,7.57a2.675,2.675,0,0,0,1.009,3.694h0a2.678,2.678,0,0,1,0,4.693h0A2.662,2.662,0,0,0,.371,19.639h0l.916,1.543a2.763,2.763,0,0,0,1.668,1.293,2.832,2.832,0,0,0,2.114-.243h0a2.8,2.8,0,0,1,2.095-.274,2.739,2.739,0,0,1,1.674,1.26,2.548,2.548,0,0,1,.372,1.3h0a2.742,2.742,0,0,0,2.773,2.709H13.8a2.742,2.742,0,0,0,2.773-2.7h0a2.665,2.665,0,0,1,.808-1.92,2.794,2.794,0,0,1,1.965-.79,2.877,2.877,0,0,1,1.327.363h0a2.81,2.81,0,0,0,3.782-.985h0l.955-1.556a2.642,2.642,0,0,0,.282-2.052A2.706,2.706,0,0,0,24.4,15.944h0A2.706,2.706,0,0,1,23.113,14.3a2.642,2.642,0,0,1,.282-2.052,2.69,2.69,0,0,1,1.009-.985h0a2.675,2.675,0,0,0,1.009-3.681h0Z" transform="translate(0 0)" fill="none" stroke="#fff" stroke-linecap="round" stroke-linejoin="round" stroke-miterlimit="10" stroke-width="1.5"/>
        <ellipse id="Ellipse_737" cx="3.822" cy="3.733" rx="3.822" ry="3.733" transform="translate(9.076 9.878)" fill="none" stroke="#fff" stroke-linecap="round" stroke-linejoin="round" stroke-miterlimit="10" stroke-width="1.5"/>
      </g>
    </g>
  </g>
</svg>
