<svg xmlns="http://www.w3.org/2000/svg" width="24" height="24" viewBox="0 0 24 24">
  <g id="Group_1800" data-name="Group 1800" transform="translate(-1419 -698)">
    <rect id="Rectangle_563" data-name="Rectangle 563" width="24" height="24" transform="translate(1419 698)" fill="none"/>
    <path id="Icon_ionic-logo-google" data-name="Icon ionic-logo-google" d="M19.36,10.192l-.081-.345H11.787v3.171h4.476a4.48,4.48,0,0,1-4.383,3.368,5.241,5.241,0,0,1-3.527-1.405,5.035,5.035,0,0,1-1.5-3.554,5.194,5.194,0,0,1,1.475-3.55,5.018,5.018,0,0,1,3.5-1.371,4.57,4.57,0,0,1,2.981,1.161l2.253-2.242a7.973,7.973,0,0,0-5.308-2.044h0A8.206,8.206,0,0,0,5.948,5.744a8.173,8.173,0,0,0-2.292,5.687,8.09,8.09,0,0,0,2.2,5.595,8.4,8.4,0,0,0,6.059,2.459A7.474,7.474,0,0,0,17.362,17.2a8.037,8.037,0,0,0,2.091-5.567A9.27,9.27,0,0,0,19.36,10.192Z" transform="translate(1419.446 698.567)" fill="#fff"/>
  </g>
</svg>
