<svg xmlns="http://www.w3.org/2000/svg" width="32" height="32" viewBox="0 0 32 32">
  <g id="Group_989" data-name="Group 989" transform="translate(-42 -328)">
    <rect id="Rectangle_355" data-name="Rectangle 355" width="32" height="32" transform="translate(42 328)" fill="none"/>
    <g id="Iconly_Light_Category" data-name="Iconly/Light/Category" transform="translate(45 331)">
      <g id="Category">
        <path id="Stroke_1" data-name="Stroke 1" d="M0,5.056C0,1.264.041,0,5.056,0s5.056,1.264,5.056,5.056.016,5.056-5.056,5.056S0,8.848,0,5.056Z" transform="translate(0)" fill="none" stroke="#fff" stroke-linecap="round" stroke-linejoin="round" stroke-miterlimit="10" stroke-width="1.5"/>
        <path id="Stroke_3" data-name="Stroke 3" d="M0,5.056C0,1.264.041,0,5.056,0s5.056,1.264,5.056,5.056.016,5.056-5.056,5.056S0,8.848,0,5.056Z" transform="translate(15.889)" fill="none" stroke="#fff" stroke-linecap="round" stroke-linejoin="round" stroke-miterlimit="10" stroke-width="1.5"/>
        <path id="Stroke_5" data-name="Stroke 5" d="M0,5.056C0,1.264.041,0,5.056,0s5.056,1.264,5.056,5.056.016,5.056-5.056,5.056S0,8.848,0,5.056Z" transform="translate(0 15.889)" fill="none" stroke="#fff" stroke-linecap="round" stroke-linejoin="round" stroke-miterlimit="10" stroke-width="1.5"/>
        <path id="Stroke_7" data-name="Stroke 7" d="M0,5.056C0,1.264.041,0,5.056,0s5.056,1.264,5.056,5.056.016,5.056-5.056,5.056S0,8.848,0,5.056Z" transform="translate(15.889 15.889)" fill="none" stroke="#fff" stroke-linecap="round" stroke-linejoin="round" stroke-miterlimit="10" stroke-width="1.5"/>
      </g>
    </g>
  </g>
</svg>
