<svg xmlns="http://www.w3.org/2000/svg" width="24" height="24" viewBox="0 0 24 24">
  <g id="Group_15" data-name="Group 15" transform="translate(-1450 -6810)">
    <rect id="Rectangle_40" data-name="Rectangle 40" width="24" height="24" transform="translate(1450 6810)" fill="none"/>
    <path id="Icon_ionic-logo-youtube" data-name="Icon ionic-logo-youtube" d="M17.44,7.408A2.666,2.666,0,0,0,14.9,4.623C13,4.534,11.066,4.5,9.087,4.5H8.47c-1.975,0-3.916.034-5.816.123A2.671,2.671,0,0,0,.12,7.415C.034,8.636,0,9.856,0,11.077s.034,2.442.117,3.666A2.675,2.675,0,0,0,2.65,17.537c2,.093,4.043.134,6.124.13s4.125-.034,6.124-.13a2.675,2.675,0,0,0,2.538-2.795c.082-1.224.12-2.445.117-3.669S17.523,8.632,17.44,7.408ZM7.1,14.441V7.7L12.07,11.07Z" transform="translate(1453.223 6810.633)" fill="#fff"/>
  </g>
</svg>
