<svg xmlns="http://www.w3.org/2000/svg" width="24" height="24" viewBox="0 0 24 24">
  <g id="Group_18" data-name="Group 18" transform="translate(-1306 -6810)">
    <rect id="Rectangle_37" data-name="Rectangle 37" width="24" height="24" transform="translate(1306 6810)" fill="none"/>
    <path id="Icon_ionic-logo-facebook" data-name="Icon ionic-logo-facebook" d="M20.065,4.5H5.41a.91.91,0,0,0-.91.91V20.065a.91.91,0,0,0,.91.91h7.328V14.453H10.768v-2.4h1.969V10.275a3.13,3.13,0,0,1,3.376-3.286c.91,0,1.888.069,2.115.1V9.309H16.714c-1.034,0-1.231.489-1.231,1.21v1.532h2.463l-.322,2.4H15.483v6.521h4.582a.91.91,0,0,0,.91-.91V5.41A.91.91,0,0,0,20.065,4.5Z" transform="translate(1305.263 6809.263)" fill="#fff"/>
  </g>
</svg>
