<svg xmlns="http://www.w3.org/2000/svg" width="24" height="24" viewBox="0 0 24 24">
  <g id="Group_992" data-name="Group 992" transform="translate(-1104 -212)">
    <rect id="Rectangle_360" data-name="Rectangle 360" width="24" height="24" transform="translate(1104 212)" fill="none"/>
    <g id="Iconly_Light_Delete" data-name="Iconly/Light/Delete" transform="translate(1104.25 212.249)">
      <g id="Delete" transform="translate(3 2)">
        <path id="Stroke_1" data-name="Stroke 1" d="M14.191,0s-.543,6.735-.858,9.572a2.238,2.238,0,0,1-2.358,2.174c-2.609.047-5.221.05-7.829-.005A2.214,2.214,0,0,1,.857,9.579C.54,6.717,0,0,0,0" transform="translate(2.134 7.468)" fill="none" stroke="#707070" stroke-linecap="round" stroke-linejoin="round" stroke-miterlimit="10" stroke-width="1.5"/>
        <path id="Stroke_3" data-name="Stroke 3" d="M16.958.5H0" transform="translate(0.75 3.74)" fill="none" stroke="#707070" stroke-linecap="round" stroke-linejoin="round" stroke-miterlimit="10" stroke-width="1.5"/>
        <path id="Stroke_5" data-name="Stroke 5" d="M10.423,3.489A1.648,1.648,0,0,1,8.808,2.165L8.565.949A1.28,1.28,0,0,0,7.328,0H3.1A1.28,1.28,0,0,0,1.858.949L1.615,2.165A1.648,1.648,0,0,1,0,3.489" transform="translate(4.018 0.751)" fill="none" stroke="#707070" stroke-linecap="round" stroke-linejoin="round" stroke-miterlimit="10" stroke-width="1.5"/>
      </g>
    </g>
  </g>
</svg>
