<svg xmlns="http://www.w3.org/2000/svg" width="24" height="24" viewBox="0 0 24 24">
  <g id="Group_17" data-name="Group 17" transform="translate(-1354 -6810)">
    <rect id="Rectangle_38" data-name="Rectangle 38" width="24" height="24" transform="translate(1354 6810)" fill="none"/>
    <path id="Icon_ionic-logo-twitter" data-name="Icon ionic-logo-twitter" d="M19.947,6.287a7.687,7.687,0,0,1-2.184.6,3.816,3.816,0,0,0,1.673-2.105,7.555,7.555,0,0,1-2.415.923,3.8,3.8,0,0,0-6.578,2.6,3.723,3.723,0,0,0,.1.868A10.776,10.776,0,0,1,2.7,5.2a3.81,3.81,0,0,0,1.182,5.082A3.714,3.714,0,0,1,2.156,9.8v.047A3.806,3.806,0,0,0,5.207,13.58a3.828,3.828,0,0,1-1,.134,3.587,3.587,0,0,1-.715-.071,3.808,3.808,0,0,0,3.554,2.643,7.624,7.624,0,0,1-4.725,1.63,7.707,7.707,0,0,1-.907-.055,10.628,10.628,0,0,0,5.82,1.72A10.754,10.754,0,0,0,18.062,8.749c0-.165,0-.33-.012-.491A7.74,7.74,0,0,0,19.947,6.287Z" transform="translate(1355.32 6809.959)" fill="#fff"/>
  </g>
</svg>
